<?xml version="1.0" encoding="UTF-8"?><svg id="Layer_2" xmlns="http://www.w3.org/2000/svg" viewBox="0 0 181.21 184.43"><defs><style>.cls-1{fill:none;stroke:#000;stroke-miterlimit:10;stroke-width:8px;}</style></defs><g id="Layer_3"><g><g><polygon class="cls-1" points="4 104.81 4 154.81 47.3 179.81 90.6 154.81 90.6 104.81 47.3 79.81 4 104.81"/><polyline class="cls-1" points="4 104.81 47.3 129.81 90.6 104.81"/><line class="cls-1" x1="47.3" y1="129.81" x2="47.3" y2="179.81"/></g><g><polygon class="cls-1" points="46.77 29.62 46.77 79.62 90.07 104.62 133.37 79.62 133.37 29.62 90.07 4.62 46.77 29.62"/><polyline class="cls-1" points="46.77 29.62 90.07 54.62 133.37 29.62"/><line class="cls-1" x1="90.07" y1="54.62" x2="90.07" y2="104.62"/></g><g><polygon class="cls-1" points="90.6 104.82 90.6 154.82 133.9 179.82 177.21 154.82 177.21 104.82 133.9 79.82 90.6 104.82"/><polyline class="cls-1" points="90.6 104.82 133.9 129.82 177.21 104.82"/><line class="cls-1" x1="133.9" y1="129.82" x2="133.9" y2="179.82"/></g></g></g></svg>