<?xml version="1.0" encoding="UTF-8"?><svg id="Layer_2" xmlns="http://www.w3.org/2000/svg" viewBox="0 0 169.79 169.79"><defs><style>.cls-1{fill:none;stroke:#000;stroke-miterlimit:10;stroke-width:8px;}</style></defs><g id="Layer_3"><g><g><circle class="cls-1" cx="84.89" cy="84.89" r="80.89"/><path class="cls-1" d="M101.42,164.1c-5.52-1.15-10.81-2.85-15.85-5.07-.23-.09-.46-.2-.68-.3-13.38-6-24.82-15.52-33.15-27.39-4.86-6.91-8.66-14.62-11.18-22.89"/><path class="cls-1" d="M40.53,61.44c2.52-8.31,6.34-16.05,11.21-22.99,8.33-11.87,19.77-21.4,33.15-27.39,.22-.1,.45-.21,.68-.3,5.04-2.21,10.33-3.91,15.85-5.07"/><path class="cls-1" d="M69.01,5.56h.02c5.51,1.09,10.81,2.74,15.86,4.91,.23,.09,.46,.19,.68,.29,13.37,5.85,24.84,15.21,33.27,26.91,5.15,7.14,9.15,15.15,11.75,23.77"/><path class="cls-1" d="M130.56,108.45c-2.6,8.58-6.6,16.56-11.72,23.67-8.43,11.7-19.9,21.07-33.27,26.91-.22,.1-.45,.2-.68,.29-5.05,2.16-10.35,3.81-15.86,4.91"/><path class="cls-1" d="M39.2,18.13c2.41,8.11,6.78,15.34,12.54,21.08,8.59,8.59,20.27,13.87,33.15,13.87s25.29-5.61,33.95-14.68c5.36-5.6,9.43-12.53,11.74-20.27"/><path class="cls-1" d="M130.58,151.65c-2.31-7.7-6.39-14.59-11.74-20.16-8.66-9.02-20.67-14.6-33.95-14.6s-24.56,5.25-33.15,13.79c-5.76,5.7-10.12,12.89-12.54,20.96"/><polyline class="cls-1" points="84.89 165.79 84.89 159.32 84.89 158.73 84.89 117.97 84.89 108.45"/><polyline class="cls-1" points="84.89 61.44 84.89 51.81 84.89 11.06 84.89 10.46 84.89 4"/><polyline class="cls-1" points="7.46 61.44 40.53 61.44 84.89 61.44 130.59 61.44 162.33 61.44"/><polyline class="cls-1" points="162.3 108.45 130.56 108.45 84.89 108.45 40.56 108.45 7.49 108.45"/></g><g><polygon points="45.66 94.62 41.45 70.88 34.11 70.88 29.89 94.62 27.24 70.88 21.18 70.88 25.28 98.87 34.32 98.87 37.79 76.89 41.23 98.87 50.26 98.87 54.36 70.88 48.3 70.88 45.66 94.62"/><polygon points="81.49 94.62 77.28 70.88 69.94 70.88 65.72 94.62 63.07 70.88 57.02 70.88 61.12 98.87 70.15 98.87 73.62 76.89 77.06 98.87 86.09 98.87 90.19 70.88 84.14 70.88 81.49 94.62"/><polygon points="117.32 94.62 113.12 70.88 105.77 70.88 101.55 94.62 98.9 70.88 92.85 70.88 96.95 98.87 105.98 98.87 109.45 76.89 112.89 98.87 121.92 98.87 126.02 70.88 119.97 70.88 117.32 94.62"/><path d="M146.13,85.04c-.8-.58-1.75-.89-2.84-.93,1.09-.05,2.03-.35,2.84-.89,.8-.54,1.42-1.27,1.84-2.16,.42-.9,.64-1.88,.64-2.94,0-1.3-.33-2.54-.99-3.7-.66-1.16-1.69-2.11-3.09-2.85-1.4-.73-3.22-1.1-5.45-1.1-1.76,0-3.26,.24-4.52,.72-1.25,.48-2.27,1.14-3.06,1.98-.78,.84-1.36,1.81-1.73,2.9-.37,1.09-.55,2.25-.55,3.46h5.88c0-1.7,.39-2.87,1.16-3.51,.77-.65,1.75-.97,2.92-.97,1.03,0,1.87,.27,2.52,.8,.66,.53,.99,1.39,.99,2.56,0,.49-.07,.97-.22,1.43-.15,.46-.38,.87-.71,1.23-.33,.36-.76,.65-1.3,.85-.54,.21-1.2,.31-1.98,.31h-.99v4.12h.99c.8,0,1.47,.09,2.01,.27,.54,.18,.97,.45,1.29,.81,.32,.35,.55,.78,.69,1.29,.15,.51,.22,1.08,.22,1.73,0,1.52-.33,2.61-1,3.28s-1.53,1.01-2.61,1.01c-.82,0-1.53-.14-2.13-.42-.6-.28-1.05-.77-1.38-1.48-.32-.71-.48-1.7-.48-2.98v-.08h-5.88v.08c0,1.29,.15,2.5,.46,3.63s.84,2.13,1.58,3.01,1.74,1.56,3.01,2.06c1.27,.5,2.85,.75,4.74,.75,2.23,0,4.05-.4,5.46-1.2,1.41-.8,2.45-1.87,3.12-3.19,.67-1.32,1.01-2.76,1.01-4.32,0-1.21-.21-2.3-.64-3.26s-1.04-1.73-1.84-2.32Z"/></g></g></g></svg>